<?xml version="1.0" encoding="UTF-8"?>
<svg id="Layer_1" data-name="Layer 1" xmlns="http://www.w3.org/2000/svg" viewBox="0 0 1080 1080">
  <g id="bangli">
    <path d="M98.33,663.53h99.81c9.71,0,18.09,3.04,25.13,9.11,7.04,6.16,10.57,13.59,10.57,22.3v47.44c0,13.87-5.24,25.2-15.71,33.99,14.37,9.07,21.57,21.84,21.57,38.34v21.35c0,17.58-7.05,31.72-21.14,42.42-13.23,10.06-29.75,15.09-49.55,15.09H98.33v-230.03Zm47.98,42.56v51.12h22.13c4.67,0,8.71-1.41,12.14-4.21,3.52-3,5.28-6.53,5.28-10.61v-36.29h-39.56Zm0,144.92h22.71c15.14,0,22.7-4.99,22.7-14.96v-21.35c0-4.17-1.71-7.7-5.14-10.6-3.43-2.81-7.42-4.22-12-4.22h-28.27v51.12Z"/>
    <path d="M316.95,846.93l-9.71,46.63h-48.55l46.84-230.03h63.83l46.69,230.03h-48.69l-9.42-46.63h-40.98Zm8.71-42.56h23.42l-11.71-98.02-11.71,98.02Z"/>
    <path d="M483.88,745.36v148.19h-47.97v-230.03h66.55l39.26,148.87v-148.87h47.98v230.03h-66.41l-39.41-148.19Z"/>
    <path d="M719.06,811.58h-22.7v-42.55h70.69v93.13c0,8.7-3.52,16.13-10.57,22.3-6.95,6.07-15.23,9.1-24.84,9.1h-70.54c-9.62,0-17.9-3.03-24.85-9.1-7.05-6.16-10.57-13.6-10.57-22.3v-167.22c0-8.71,3.52-16.13,10.57-22.3,6.95-6.07,15.23-9.11,24.85-9.11h70.54c9.61,0,17.89,3.04,24.84,9.11,7.05,6.16,10.57,13.59,10.57,22.3v46.22h-47.98v-35.07h-45.41v144.92h45.41v-39.43Z"/>
    <path d="M799.32,893.56v-230.03h47.98v187.48h66.54v42.55h-114.52Z"/>
    <path d="M933.69,893.56v-230.03h47.98v230.03h-47.98Z"/>
  </g>
  <path id="deck" d="M147.19,489.99c1.19-52.25,7.65-104.77,20.91-156.03,13.43-51.12,33.71-101.45,66.14-145.6,32.38-43.93,78.64-79.69,132.34-102.08,53.62-22.63,113.38-33.09,172.8-33.56,29.95-.14,59.89,.18,89.02,4.8,29.12,4.58,57.3,13.45,82.95,26.52,51.53,26.21,92.93,65.86,128.23,108.13,35.9,41.97,57,92.31,71.38,143.17,14.2,51.09,21.71,103.45,24.52,155.7,1.33,26.05,.52,52.32,.81,78.46,.01,8.59,.02,44.44,.03,62.83h45.36c-.02-11.65-.03-23.26-.05-34.93-.32-29.14,.59-58.44-.9-87.48-3.13-58.25-11.5-116.63-27.34-173.59-16.03-56.7-39.55-112.83-79.58-159.63-39.36-47.13-85.51-91.34-142.97-120.56-28.6-14.56-60.01-24.46-92.48-29.56-32.48-5.15-65.85-5.5-99.25-5.35-66.26,.53-132.88,12.19-192.66,37.42-59.88,24.96-111.44,64.83-147.55,113.81-36.15,49.22-58.76,105.33-73.74,162.33-14.78,57.16-21.99,115.71-23.31,173.97-.04,41.33-.07,82.5-.1,123.58h45.36c.03-39.33,.06-108.08,.09-142.34Z"/>
  <g id="skatepark">
    <path d="M218.24,1034.88c-1.52-.57-2.27-1.33-2.27-2.09v-.38c.51-1.33,1.51-1.9,3.28-2.09l1.26-.19,3.54,.19c2.77,0,4.8-.19,6.06-.76,4.29-.57,8.33-1.52,12.37-2.47l1.01-.19c3.54-.76,6.82-1.89,9.85-3.42l.25-.19c3.79-1.9,5.55-3.61,5.55-5.32,0-.94-.51-2.09-1.52-3.41-1.26-1.15-2.27-2.28-3.53-3.42-6.31-6.27-10.86-12.91-13.13-19.56-1.77-3.98-2.53-8.16-2.53-12.34,0-6.27,1.26-11.77,3.79-16.9l.25-.38c1.52-3.23,3.03-5.31,4.8-6.64,4.8-5.13,9.85-7.6,15.65-7.6,1.77,0,3.28,.19,5.05,.57,.25,.19,.51,.19,.76,.19s.51,0,.76,.19c.76,0,1.01-.19,1.01-.57,1.26-3.98,3.53-6.07,6.31-6.07h1.01c5.3,.38,9.6,2.09,12.88,5.31,.25,.19,.51,.76,.51,1.71,0,1.89-1.01,5.13-2.77,9.49-1.52,2.47-2.78,4.93-3.79,7.41l-.51,.94c-1.52,3.61-2.78,7.03-3.79,10.64-.25,.95-.51,1.71-.76,2.47-.76,2.28-1.26,4.56-1.77,7.02-.25,1.52-1.01,2.28-2.53,2.28l-1.26-.19c-4.29-.56-6.56-1.89-7.07-3.8-.51-1.89-.76-3.8-.76-5.51,0-3.41,.25-7.59,1.01-12.72l1.01-5.13h-.25c-.25,0-.51,.19-.76,.76-2.27,3.04-4.29,6.46-5.81,10.06-1.77,3.8-2.53,7.79-2.53,11.97,0,4.74,.51,8.35,1.52,11.01l.76,1.71c2.02,5.51,5.81,10.26,11.11,14.24,4.8,3.23,7.32,6.27,7.57,8.93,0,1.52-.76,3.04-2.02,4.37-2.78,2.65-6.31,4.56-10.61,5.89-5.81,1.89-12.12,3.23-18.43,3.79-6.82,.95-11.11,1.52-13.39,1.52-2.02,.38-4.04,.57-6.31,.57-5.05,0-8.59-.57-10.86-1.9Z"/>
    <path d="M283.64,1051.59c-1.77-.95-2.53-2.47-2.78-4.18s-.25-3.23-.25-4.75c0-3.03,.25-5.69,.76-7.78l.25-3.04c0-1.52-.51-2.27-1.26-2.27h-.25c-4.8,.94-8.08,1.71-9.84,2.27-1.77,.57-3.28,.95-4.29,.95-.76,0-1.77-.38-3.03-1.14-4.8-2.85-7.07-5.13-7.07-6.84l.76-1.89c.76-2.09,7.32-4.18,19.19-6.27,5.81-1.15,8.59-1.9,8.84-2.48,1.26-7.78,3.79-16.33,7.32-25.44,3.28-8.93,6.82-17.09,10.61-24.3,3.79-7.02,6.56-11.58,8.59-13.67,1.26-.95,2.52-1.52,4.04-1.52,1.26,0,2.78,.39,5.05,1.15,2.27,.94,4.04,2.47,5.81,4.56,.25,.56,.51,.95,.51,1.52,0,.95-.51,2.47-1.77,4.56l-2.02,4.56c0,.19-1.52,3.42-4.8,10.06-3.28,6.65-4.8,10.06-5.05,10.44-.25,.57-.51,1.15-.75,1.9l-.51,.76c1.26-.56,3.28-2.47,6.56-5.51,15.91-14.43,32.57-26.96,50.5-37.78,.51-.19,1.01-.38,1.77-.38,1.52,0,3.28,.77,5.31,2.28,2.02,1.52,3.03,3.23,3.03,4.93,0,.95-.25,1.71-1.01,2.66-2.52,3.42-5.05,6.07-7.83,8.16-1.01,.77-2.02,1.71-3.28,2.85-.51,.56-3.54,2.85-8.84,6.83-31.56,23.74-47.22,36.27-47.22,37.98,0,.19,.25,.19,1.01,.19l3.79-.38c5.3-.57,12.37-.95,21.21-.95,13.39,0,20.2,2.85,20.2,8.73,0,.95-.25,1.71-.76,2.28s-1.26,.95-2.02,.95c-.51,0-1.01-.19-1.52-.38-.5-.19-1.01-.38-1.26-.57s-.51-.38-.76-.76-.76-.76-1.52-1.14c-.76-.39-2.02-.57-3.79-.57-4.29,0-12.12,.95-23.23,3.04-16.92,3.03-25.25,4.93-25.5,5.89-.25,.94-1.26,4.56-2.52,10.63-1.26,5.13-1.77,8.93-1.77,11.01,0,1.14,.25,1.89,.51,2.28,.25,.38,.51,.76,.51,.94,0,.95-1.01,1.33-3.28,1.33-2.52,0-4.54-.57-6.31-1.71Z"/>
    <path d="M364.45,1055.77c-4.04-1.52-6.82-3.8-8.08-6.83l-.25-1.15c0-1.14,1.01-2.09,3.03-2.65,4.29-1.71,8.59-2.85,13.38-3.8l9.6-2.09c7.83-1.71,14.14-2.85,18.94-3.23,.76,0,1.26,0,1.77-.19,.51-.19,.75-.19,1.01-.19h.51c3.28,0,6.32,.57,9.09,1.9,2.78,1.33,4.55,3.03,5.31,5.12l.25,1.15c0,.19-.25,.56-.51,.76-.25,.19-.76,.38-1.01,.38-.76,0-1.26-.19-1.77-.38-.76-.19-1.26-.19-1.77-.19l-2.02,.38c-.75,.19-1.76,.39-2.77,.57-5.05,1.14-13.13,3.42-24.49,6.84-6.06,1.89-10.35,3.04-12.63,3.42l-4.8,.76c-1.01,0-2.02-.19-2.78-.57Zm59.09-18.6c-3.03,0-5.81-.57-8.33-1.9-4.8-2.09-7.83-4.93-9.6-8.54-.51-.77-1.01-1.15-1.77-1.15-.25,0-.75,.19-1.51,.38-2.27,.77-4.8,1.52-7.32,2.09-3.54,.95-7.07,2.09-10.61,3.42-1.52,.57-3.03,1.14-4.8,1.52-.75,.19-1.76,.38-2.52,.56-.76,.19-1.77,.38-2.53,.38-1.26,0-2.53-.38-3.53-.94-1.26-.57-2.27-1.15-3.54-1.33-1.26-.19-2.27-.38-3.54-.95-2.27-.76-3.53-2.09-3.53-3.98,.25-2.66,.76-5.32,1.52-7.79,0-.95,.25-2.09,1.01-3.23,.5-1.14,.75-2.47,1.01-3.8l4.29-12.15c.25-.76,.51-1.52,.76-2.47l2.27-5.51c1.77-3.6,3.28-6.64,4.04-9.31l1.01-1.89c2.27-5.13,4.04-8.35,5.05-10.06s1.77-3.42,2.53-5.13c.76-1.71,1.52-3.23,2.27-4.56s1.51-2.47,2.27-3.8c.51-1.33,2.02-4.18,4.8-8.93,.76-1.71,1.77-3.42,2.77-5.13,1.01-1.71,2.53-2.47,4.8-2.47h.51c5.55,.38,10.1,2.09,13.63,5.13,.51,.57,.76,1.14,1.01,1.71l.25,2.28h-.51l.25,6.27-1.26,15.76c-.25,2.09-.51,4.37-.51,6.46l-.25,12.91c0,3.03,.25,6.07,.76,9.11v3.04l1.01,7.78c.25,.95,.76,1.33,2.02,1.33,5.55,.57,9.6,2.47,12.37,5.69,.76,.77,1.01,1.52,1.26,2.28,0,.95-.51,1.52-1.26,1.52l-1.01-.19c-1.01-.19-2.02-.38-2.77-.38l-4.55,.56q0,.19-.25,.19c-1.77,.19-2.77,.57-2.77,.95s.25,.94,.51,1.71c1.26,3.6,3.28,7.02,6.56,10.25,.51,.57,.76,.95,.76,1.14,0,.57-.76,.95-2.27,1.15h-.76Zm-38.13-18.61c6.31-1.89,10.6-3.04,12.37-3.23,1.77-.19,2.53-.57,2.53-1.15l-.25-.76c-.76-1.71-1.01-3.42-1.26-5.13l-.25-.76-1.52-7.4c-.25-1.33-.51-2.66-.76-3.99-.25-1.32-.51-2.65-.51-4.18v-1.32c0,.76-.25,1.32-.5,1.52-1.01,1.33-1.52,2.66-1.77,4.18-1.52,5.51-4.04,11.58-7.57,18.23l-1.77,3.79q0,.19,.25,.19,.25,.19,.51,.19l.51-.19Z"/>
    <path d="M453.08,1056.91c-3.28-.76-6.31-2.09-8.59-4.18-6.82-4.93-10.35-11.39-10.35-19.55l-.25-3.98v-6.64c0-2.28,.51-7.22,1.52-14.81l2.02-12.72c.25-1.71,.51-3.23,.76-4.74,.25-1.33,.25-2.66,.51-3.8l2.77-13.68,3.79-17.47c.51-2.85,1.01-5.31,1.77-7.22,0-.19-1.26-.38-4.04-.38-3.03,0-5.05,.19-5.81,.38-.76,.19-1.77,.38-2.78,.38-2.52,0-4.54-.95-6.31-2.85-1.77-1.89-2.78-3.8-2.78-5.51,0-1.33,.76-2.47,2.27-3.04,.76-.19,1.52-.56,2.27-.94s1.77-.77,2.53-1.15c.75-.19,2.27-.56,4.54-.94,2.02-.38,4.04-.77,6.06-1.15s3.28-.56,4.04-.76c.76,0,1.26,0,1.52-.19,1.01-.19,1.76-.38,2.52-.77,.76-.19,1.26-.94,1.52-2.09,.25-.94,.51-2.09,1.01-3.23,.25-.95,.76-1.89,1.01-2.85s.76-1.71,1.26-2.28c.51-.56,.75-1.32,1.01-2.09,.76-2.09,2.02-4.18,3.79-6.07,1.26-1.71,2.78-2.47,4.54-2.47,.76,0,1.52,.19,2.27,.38,4.8,.95,8.08,3.23,10.1,6.64,.25,.57,.51,1.14,.51,1.89v.57c-.76,4.37-1.01,6.46-1.26,6.64v.19c0,.56,.25,.76,1.01,.76h.76c4.04-.76,10.85-1.52,20.7-2.47,6.82-.57,11.36-.95,14.14-.95,3.28,.19,6.06,1.14,8.33,2.85,2.78,2.09,4.55,4.75,5.31,7.6l.25,.76c0,.95-.25,1.52-1.01,1.71-.76,.38-1.26,.57-2.02,.57s-1.26-.19-2.02-.57c-.76-.19-1.76-.38-3.03-.38-1.01,0-2.02,0-2.78,.19-.76,.19-1.77,.19-2.53,.19-4.04,.19-8.08,.76-12.12,1.33l-9.6,1.14c-8.84,.77-15.4,1.52-19.69,2.48-1.01,.19-1.52,.76-1.52,1.7-.25,1.33-.76,2.66-1.26,3.8-1.26,3.23-2.27,6.65-3.03,10.06-.76,2.09-1.52,3.99-1.77,5.89-.5,2.09-1.01,3.99-1.76,5.7-.76,1.14-1.01,2.47-1.26,3.8,0,.94-.51,3.23-1.52,7.02-.76,2.27-1.26,4.75-1.77,7.22-.51,2.65-1.26,5.31-2.02,8.16-2.02,8.55-3.03,13.48-3.28,14.81s-.51,2.66-.76,3.6c-.51,2.09-1.01,5.13-1.26,8.93-.25,1.33-.51,2.66-.76,3.98-.25,1.33-.51,2.85-.51,4.37,0,.95,0,1.71-.25,2.47l-.25,3.99c0,2.85,.25,5.5,.76,8.16,.25,3.23,2.02,6.08,5.05,8.55,1.01,.76,1.51,1.33,1.51,1.71,0,.94-.5,1.52-1.76,1.52l-2.02-.19Z"/>
    <path d="M468.48,1034.69c-3.03-.94-5.3-2.65-7.07-5.12-.51-.57-.76-1.33-.76-1.9,0-.94,1.01-2.27,2.78-3.6,1.01-1.14,3.03-2.66,6.31-4.56,2.27-1.52,4.29-2.66,6.06-3.23,3.28-1.7,5.81-2.85,7.57-3.41,1.01-.19,2.27-.57,3.54-1.15,2.02-.94,4.04-1.52,6.06-2.09,1.77-.38,3.54-.76,5.3-1.33l8.84-2.09c5.81-1.52,11.87-2.85,17.68-3.98,13.39-2.47,21.21-3.8,23.48-3.8h1.52c3.79,.76,6.82,2.47,8.59,5.31,.76,.95,1.26,1.9,1.52,3.23,0,1.32-.76,2.09-2.02,2.09-.25,0-.76-.19-1.52-.38-.76-.19-1.52-.19-2.52-.19s-2.02,.19-3.03,.38c-1.26,.19-2.53,.57-3.79,.76-4.29,.76-8.83,1.71-13.13,3.04-4.29,.95-7.57,1.71-9.34,2.47-2.02,.76-4.29,1.52-6.56,2.09-3.03,.76-5.81,1.52-8.59,2.47-2.78,.95-5.3,2.09-7.57,3.04-2.53,.95-5.05,1.9-7.32,2.85-2.53,.95-4.55,1.71-6.06,2.47-.25,.19-.76,.38-1.26,.57l-3.28,1.71-9.34,4.18c-1.01,.38-2.02,.57-3.28,.57-.76,0-1.77-.19-2.78-.39Zm9.09-29.24c-4.04-1.33-6.82-3.42-8.33-6.64-.25-.38-.25-.76-.25-1.33s.25-1.33,.76-2.09c2.27-2.47,5.3-4.56,9.09-5.89,3.79-1.32,6.82-3.03,9.6-5.31,4.29-3.42,9.09-6.46,14.39-9.31,5.3-2.65,10.61-5.51,15.91-8.35,1.77-.56,2.78-1.14,3.53-1.71-1.26,0-2.02,.19-2.27,.38-.51,.19-.76,.38-1.01,.38-2.78,1.15-5.81,1.9-8.84,2.09-.76,.19-1.52,.39-2.27,.77h-.25c-1.01,.38-2.02,.56-3.03,.76-1.26,.19-2.27,.56-3.03,.95-2.27,.56-4.54,1.14-6.82,1.52l-5.05,.76c-2.02,0-3.79-.57-5.05-1.52-2.53-1.33-4.29-3.23-5.55-5.51-.25-.57-.51-1.33-.51-1.9,0-.94,.51-1.71,1.77-2.65,2.27-1.71,4.29-2.66,6.56-3.23,3.53-1.32,7.07-2.47,10.86-3.23,6.82-1.52,10.85-2.47,12.62-2.65,1.01-.19,2.02-.19,3.03-.39,.76,0,3.28-.38,7.32-1.14,.76,0,1.51,0,2.27-.19l6.82-.95c1.26-.19,2.52-.38,3.79-.57,5.81-.56,10.61-.95,13.89-.95,1.77,.19,3.28,.77,4.55,1.52,2.77,1.71,4.29,3.8,5.05,6.27v.76c0,1.33-.76,1.9-2.27,1.9l-2.52-.39h-.76c-3.28,.57-7.07,1.9-10.86,3.99-12.37,5.69-23.99,11.77-35.35,18.22l-.76,.19c-.76,.38-1.26,.95-2.02,1.52,2.27-.76,4.29-1.32,6.56-1.71l3.54-.94,11.61-2.85,3.03-.57c10.1-2.66,17.93-4.18,23.48-4.56,1.52,0,2.78,.38,4.04,1.14,2.02,1.33,3.54,2.85,4.29,4.56l.25,1.14c0,.95-.76,1.71-2.27,1.9-4.8,.95-9.6,2.09-14.39,3.42-4.8,1.52-9.34,3.03-13.63,4.36-4.55,1.33-7.32,2.28-8.33,2.85-2.53,.94-6.06,2.09-10.35,3.6-4.54,1.52-8.59,3.04-12.37,4.75l-11.36,4.56c-4.29,1.71-6.82,2.65-7.57,2.65-.51,0-1.01-.19-1.52-.38Z"/>
    <path d="M564.18,1058.61c-4.8-.56-7.83-1.89-8.84-3.6s-1.52-4.18-1.52-7.78c0-10.64,.76-20.13,2.53-28.48,.51-3.04,.76-5.51,.76-7.22,0-1.33-.25-2.47-.76-3.04-.76-.57-1.26-1.33-1.77-2.28v-.56c0-.76,.76-1.14,2.27-1.14,.76,0,1.52-.19,1.77-.77,.76-5.31,2.02-10.63,3.53-15.95l4.04-13.29c.25-1.52,.51-2.47,.76-2.85,0-.38,.25-1.14,.76-2.28,1.01-2.27,1.51-4.18,1.51-5.5,0-.95-.25-2.1-.75-3.04-.76-.95-1.01-1.9-1.01-3.23,0-.94,.76-2.09,2.02-3.6,1.26-1.33,3.03-2.66,5.31-3.98,.76-.57,1.26-1.15,1.52-1.71,.25-.57,.51-.95,.76-1.33,1.26-1.33,2.52-2.09,3.79-2.09,.51,0,1.01,0,1.77,.19,.51,.19,1.26,.19,2.02,.19,1.01,0,2.27-.19,3.53-.38,7.32-2.09,14.14-3.04,20.45-3.04,7.57,0,14.39,1.52,20.2,4.37,9.85,4.74,14.9,11.96,14.9,21.26,0,4.56-1.01,8.93-3.28,13.29-.76,1.71-1.52,3.04-2.27,3.99l-.76,.94c-1.77,2.85-4.04,5.51-6.82,7.97l-1.01,.95c-1.77,1.71-4.04,3.42-6.31,4.93-5.05,3.23-9.09,5.51-11.87,6.84-.76,.19-1.26,.57-1.77,.95-.5,.38-1.01,.76-1.51,.94-11.87,5.32-21.21,8.36-28.53,9.31-2.02,.19-3.53,.57-4.29,1.15-1.01,.56-2.27,4.18-3.54,10.82l-3.28,19.17c0,.57,.5,.95,1.51,1.33,1.01,.56,1.52,1.14,1.52,1.71,0,.38,0,.76-.25,1.33-.25,.56-.51,.94-.76,1.52-1.01,2.85-2.52,4.18-4.54,4.18l-1.77-.19Zm17.17-52.4c6.56-2.85,12.88-6.83,19.19-11.96,7.07-5.89,12.12-11.58,15.4-17.47,.51-.57,.76-.95,1.01-1.33,.25-.19,.5-.76,1.01-1.33s1.01-1.33,1.52-2.28c.25-.94,1.01-2.27,2.02-3.98l1.77-4.75c1.01-3.23,1.52-5.51,1.52-7.02,0-1.33-.51-2.27-1.52-2.66-2.53-.56-5.31-.76-8.59-.76-5.3,0-11.87,.57-19.44,1.9-.76,.19-1.26,.56-1.26,.76-.25,.38-.25,.76-.51,1.33,0,.94-.25,3.03-1.01,5.89l-3.03,10.44-.25,1.14-2.27,7.97c-.76,1.33-1.26,3.04-1.52,5.13-.5,2.09-1.26,3.98-2.02,5.89-.25,.94-.51,1.71-.76,2.47-.25,.95-.51,1.89-.76,2.85-.51,.95-1.01,2.09-1.26,3.23-.25,1.15-.76,2.28-1.26,3.61l-.25,.56c0,.57,.25,.77,.76,.77l1.52-.39Z"/>
    <path d="M637.67,1055.77c-4.04-1.52-6.82-3.8-8.08-6.83l-.25-1.15c0-1.14,1.01-2.09,3.03-2.65,4.29-1.71,8.59-2.85,13.38-3.8l9.6-2.09c7.83-1.71,14.14-2.85,18.94-3.23,.76,0,1.26,0,1.77-.19,.51-.19,.76-.19,1.01-.19h.51c3.28,0,6.32,.57,9.09,1.9,2.78,1.33,4.55,3.03,5.31,5.12l.25,1.15c0,.19-.25,.56-.51,.76-.25,.19-.76,.38-1.01,.38-.76,0-1.26-.19-1.77-.38-.76-.19-1.26-.19-1.77-.19l-2.02,.38c-.75,.19-1.76,.39-2.77,.57-5.05,1.14-13.13,3.42-24.49,6.84-6.06,1.89-10.35,3.04-12.63,3.42l-4.8,.76c-1.01,0-2.02-.19-2.78-.57Zm59.09-18.6c-3.03,0-5.81-.57-8.33-1.9-4.8-2.09-7.83-4.93-9.6-8.54-.51-.77-1.01-1.15-1.77-1.15-.25,0-.75,.19-1.51,.38-2.27,.77-4.8,1.52-7.32,2.09-3.54,.95-7.07,2.09-10.61,3.42-1.52,.57-3.03,1.14-4.8,1.52-.75,.19-1.76,.38-2.52,.56-.76,.19-1.77,.38-2.53,.38-1.26,0-2.53-.38-3.53-.94-1.26-.57-2.27-1.15-3.54-1.33-1.26-.19-2.27-.38-3.54-.95-2.27-.76-3.53-2.09-3.53-3.98,.25-2.66,.76-5.32,1.52-7.79,0-.95,.25-2.09,1.01-3.23,.5-1.14,.75-2.47,1.01-3.8l4.29-12.15c.25-.76,.51-1.52,.76-2.47l2.27-5.51c1.76-3.6,3.28-6.64,4.04-9.31l1.01-1.89c2.27-5.13,4.04-8.35,5.05-10.06s1.77-3.42,2.53-5.13,1.52-3.23,2.27-4.56,1.51-2.47,2.27-3.8c.51-1.33,2.02-4.18,4.8-8.93,.76-1.71,1.77-3.42,2.77-5.13,1.01-1.71,2.53-2.47,4.8-2.47h.51c5.55,.38,10.1,2.09,13.63,5.13,.51,.57,.76,1.14,1.01,1.71l.25,2.28h-.51l.25,6.27-1.26,15.76c-.25,2.09-.51,4.37-.51,6.46l-.25,12.91c0,3.03,.25,6.07,.76,9.11v3.04l1.01,7.78c.25,.95,.76,1.33,2.02,1.33,5.55,.57,9.6,2.47,12.37,5.69,.76,.77,1.01,1.52,1.26,2.28,0,.95-.51,1.52-1.26,1.52l-1.01-.19c-1.01-.19-2.02-.38-2.77-.38l-4.55,.56q0,.19-.25,.19c-1.76,.19-2.77,.57-2.77,.95s.25,.94,.51,1.71c1.26,3.6,3.28,7.02,6.56,10.25,.51,.57,.76,.95,.76,1.14,0,.57-.76,.95-2.27,1.15h-.76Zm-38.13-18.61c6.31-1.89,10.6-3.04,12.37-3.23,1.77-.19,2.53-.57,2.53-1.15l-.25-.76c-.76-1.71-1.01-3.42-1.26-5.13l-.25-.76-1.52-7.4c-.25-1.33-.51-2.66-.76-3.99-.25-1.32-.51-2.65-.51-4.18v-1.32c0,.76-.25,1.32-.5,1.52-1.01,1.33-1.52,2.66-1.77,4.18-1.52,5.51-4.04,11.58-7.57,18.23l-1.77,3.79q0,.19,.25,.19,.25,.19,.51,.19l.51-.19Z"/>
    <path d="M710.14,1041.53c-2.27-1.33-3.79-3.42-4.29-6.64v-5.51c0-2.47,.25-5.51,.76-9.31l.25-1.89-.25-.57c-1.26-.56-2.52-1.14-3.53-1.89-2.27-1.14-3.28-2.47-3.28-3.8,0-.95,.76-1.52,2.27-2.09,1.52-.57,2.27-1.14,2.27-1.71,0-.19,0-.38-.25-.57,0-.94,.25-1.71,.76-1.89,.25-.19,.76-.38,1.01-.38l2.53,.38c.25,0,.76-.38,1.01-1.33,.25-1.71,.51-3.23,.76-4.75l.76-3.03c.25-2.48,1.01-5.13,1.77-7.6,1.76-6.64,3.03-11.77,4.29-15.39,1.26-3.41,2.53-6.83,4.04-10.25,0-.38-.51-.95-1.77-1.9-1.26-.56-2.02-1.14-2.53-2.09-.25-.19-.51-.56-.51-1.14s.25-1.33,1.01-2.27c2.78-3.04,5.81-5.32,9.6-7.03,2.27-1.14,4.04-2.27,5.3-3.42,.25-.19,2.02-.94,5.56-1.89,9.09-2.47,17.42-3.6,25.25-3.6h6.82c3.28,.19,7.32,1.32,11.61,3.41,4.29,2.28,7.07,6.08,8.84,11.21v1.14c0,6.07-5.05,12.91-14.9,20.5-9.85,7.6-19.95,14.43-30.05,20.32-6.06,3.6-10.1,6.27-12.37,7.97,10.35-1.15,19.95-3.23,28.79-6.27,9.84-3.23,16.92-5.89,21.46-8.36l1.77-.94h.76c.25,.19,.51,.19,.76,.38,.25,.19,.25,.38,.25,.56,2.27,1.15,3.28,2.48,3.28,3.99,0,.76-.25,1.52-1.01,2.09-5.3,4.37-11.61,7.78-18.68,10.64-12.37,5.12-21.97,8.16-28.79,9.3-5.55,.95-10.35,1.33-14.14,1.33-2.27,0-3.79,.19-4.8,.57-1.01,.38-1.76,3.8-2.52,10.25-.25,1.52-.51,3.23-.76,5.32-.25,.76-.25,2.09-.25,3.98s.25,3.04,.76,3.42c.25,.57,.51,.95,.51,1.33,0,.95-.76,1.52-2.27,1.52-2.78-.19-5.55-.76-7.83-2.09Zm20.7-51.65c3.79-2.47,8.84-6.27,15.15-11.01,6.31-4.75,12.62-9.5,18.43-14.43,5.81-4.75,9.6-8.73,11.36-11.77l.25-.19c.51-.57,.76-1.15,.76-1.52,0-.19,0-.38-.25-.56-.25-.19-1.01-.19-2.53-.38-2.53-.19-5.05-.38-7.32-.38-6.82,0-13.38,.94-19.7,2.65-1.26,.19-1.76,.76-2.02,1.71s-.51,1.71-1.01,2.47c-.76,1.52-1.52,3.04-1.77,4.37-.51,1.33-1.01,2.65-1.77,3.98l-2.27,5.32-1.51,3.6c-3.28,7.22-5.31,12.91-6.56,16.9l.75-.77Z"/>
    <path d="M783.11,1051.59c-1.77-.95-2.53-2.47-2.78-4.18s-.25-3.23-.25-4.75c0-3.03,.25-5.69,.76-7.78l.25-3.04c0-1.52-.51-2.27-1.26-2.27h-.25c-4.8,.94-8.08,1.71-9.84,2.27-1.77,.57-3.28,.95-4.29,.95-.76,0-1.77-.38-3.03-1.14-4.8-2.85-7.07-5.13-7.07-6.84l.76-1.89c.76-2.09,7.32-4.18,19.19-6.27,5.81-1.15,8.59-1.9,8.84-2.48,1.26-7.78,3.79-16.33,7.32-25.44,3.28-8.93,6.82-17.09,10.61-24.3,3.79-7.02,6.56-11.58,8.59-13.67,1.26-.95,2.52-1.52,4.04-1.52,1.26,0,2.78,.39,5.05,1.15,2.27,.94,4.04,2.47,5.81,4.56,.25,.56,.51,.95,.51,1.52,0,.95-.51,2.47-1.77,4.56l-2.02,4.56c0,.19-1.52,3.42-4.8,10.06-3.28,6.65-4.8,10.06-5.05,10.44-.25,.57-.51,1.15-.76,1.9l-.5,.76c1.26-.56,3.28-2.47,6.56-5.51,15.91-14.43,32.57-26.96,50.5-37.78,.5-.19,1.01-.38,1.76-.38,1.52,0,3.28,.77,5.31,2.28,2.02,1.52,3.03,3.23,3.03,4.93,0,.95-.25,1.71-1.01,2.66-2.52,3.42-5.05,6.07-7.83,8.16-1.01,.77-2.02,1.71-3.28,2.85-.51,.56-3.54,2.85-8.84,6.83-31.56,23.74-47.22,36.27-47.22,37.98,0,.19,.25,.19,1.01,.19l3.79-.38c5.3-.57,12.37-.95,21.21-.95,13.39,0,20.2,2.85,20.2,8.73,0,.95-.25,1.71-.76,2.28s-1.26,.95-2.02,.95c-.51,0-1.01-.19-1.51-.38-.51-.19-1.01-.38-1.26-.57s-.51-.38-.76-.76-.76-.76-1.52-1.14c-.76-.39-2.02-.57-3.79-.57-4.29,0-12.12,.95-23.23,3.04-16.92,3.03-25.25,4.93-25.5,5.89-.25,.94-1.26,4.56-2.52,10.63-1.26,5.13-1.77,8.93-1.77,11.01,0,1.14,.25,1.89,.51,2.28,.25,.38,.51,.76,.51,.94,0,.95-1.01,1.33-3.28,1.33-2.52,0-4.54-.57-6.31-1.71Z"/>
  </g>
  <g id="truck">
    <circle cx="491.07" cy="532.32" r="35"/>
    <circle cx="592.34" cy="532.32" r="35"/>
    <circle cx="592.34" cy="408.38" r="35"/>
    <circle cx="491.07" cy="408.38" r="35"/>
  </g>
</svg>